<?xml version="1.0" encoding="UTF-8"?>
<!DOCTYPE svg PUBLIC "-//W3C//DTD SVG 1.1//EN" "http://www.w3.org/Graphics/SVG/1.1/DTD/svg11.dtd">
<svg xmlns="http://www.w3.org/2000/svg" version="1.1" width="1380px" height="773px" style="shape-rendering:geometricPrecision; text-rendering:geometricPrecision; image-rendering:optimizeQuality; fill-rule:evenodd; clip-rule:evenodd" xmlns:xlink="http://www.w3.org/1999/xlink">
<g><path style="opacity:0.976" fill="#ad4a83" d="M 936.5,-0.5 C 945.167,-0.5 953.833,-0.5 962.5,-0.5C 990.136,10.7667 1000.97,31.1 995,60.5C 987.67,80.7595 973.17,91.0928 951.5,91.5C 925.06,89.8879 908.894,76.2212 903,50.5C 901.643,25.2019 912.81,8.20189 936.5,-0.5 Z"/></g>
<g><path style="opacity:0.994" fill="#ad4a83" d="M 973.5,171.5 C 973.5,370.833 973.5,570.167 973.5,769.5C 950.5,769.5 927.5,769.5 904.5,769.5C 904.5,692.167 904.5,614.833 904.5,537.5C 905.827,416.354 905.827,295.354 904.5,174.5C 904.5,173.5 904.5,172.5 904.5,171.5C 927.5,171.5 950.5,171.5 973.5,171.5 Z"/></g>
<g><path style="opacity:0.992" fill="#393184" d="M 1025.5,171.5 C 1065.51,171.176 1105.51,171.676 1145.5,173C 1242.9,176.088 1311.4,221.921 1351,310.5C 1368.38,353.589 1377.88,398.255 1379.5,444.5C 1379.5,464.833 1379.5,485.167 1379.5,505.5C 1377.34,565.811 1360.17,621.478 1328,672.5C 1298.85,715.615 1259.01,744.115 1208.5,758C 1180.61,765.025 1152.28,768.692 1123.5,769C 1073.83,769.5 1024.17,769.667 974.5,769.5C 974.5,570.5 974.5,371.5 974.5,172.5C 991.675,172.83 1008.67,172.497 1025.5,171.5 Z M 1025.5,273.5 C 1054.51,273.317 1083.51,273.817 1112.5,275C 1186.6,275.113 1231.43,311.28 1247,383.5C 1255.27,433.633 1256.6,483.966 1251,534.5C 1248.28,568.667 1237.61,600.001 1219,628.5C 1201.24,648.299 1179.08,660.132 1152.5,664C 1142.22,665.586 1131.89,666.586 1121.5,667C 1089.5,667.5 1057.5,667.667 1025.5,667.5C 1025.5,536.167 1025.5,404.833 1025.5,273.5 Z"/></g>
<g><path style="opacity:0.993" fill="#018cd1" d="M 477.5,174.5 C 549.559,373.676 621.226,573.009 692.5,772.5C 667.167,772.5 641.833,772.5 616.5,772.5C 599.463,727.223 582.13,682.056 564.5,637C 527.502,636.5 490.502,636.333 453.5,636.5C 424.498,636.667 395.498,636.5 366.5,636C 356.972,635.659 347.638,634.825 338.5,633.5C 358.312,602.896 369.479,569.23 372,532.5C 376.411,485.649 375.078,438.982 368,392.5C 363.075,360.99 349.909,333.656 328.5,310.5C 342.735,275.367 356.402,240.034 369.5,204.5C 373.723,195.037 377.723,185.37 381.5,175.5C 413.493,174.5 445.493,174.167 477.5,174.5 Z M 443.5,317.5 C 445.117,319.121 446.284,321.121 447,323.5C 473.068,393.872 499.235,464.205 525.5,534.5C 523.667,534.833 521.833,535.167 520,535.5C 474.183,533.109 428.349,531.109 382.5,529.5C 402.836,458.827 423.169,388.161 443.5,317.5 Z"/></g>
<g><path style="opacity:0.994" fill="#4d887c" d="M 477.5,174.5 C 521.5,174.5 565.5,174.5 609.5,174.5C 658.828,320.984 708.662,467.318 759,613.5C 807.603,467.191 856.103,320.858 904.5,174.5C 905.827,295.354 905.827,416.354 904.5,537.5C 875.731,615.467 847.731,693.8 820.5,772.5C 777.833,772.5 735.167,772.5 692.5,772.5C 621.226,573.009 549.559,373.676 477.5,174.5 Z"/></g>
<g><path style="opacity:0.993" fill="#e21e24" d="M -0.5,175.5 C 91.5133,175.041 183.513,175.541 275.5,177C 295.85,178.288 315.85,181.621 335.5,187C 348.18,190.505 359.514,196.338 369.5,204.5C 356.402,240.034 342.735,275.367 328.5,310.5C 311.541,295.689 291.874,286.189 269.5,282C 255.246,279.84 240.913,278.507 226.5,278C 191.168,277.5 155.835,277.333 120.5,277.5C 120.5,408.833 120.5,540.167 120.5,671.5C 162.844,671.794 205.177,671.294 247.5,670C 277.029,669.712 303.695,661.045 327.5,644C 331.036,640.296 334.702,636.796 338.5,633.5C 347.638,634.825 356.972,635.659 366.5,636C 395.498,636.5 424.498,636.667 453.5,636.5C 443.021,659.799 429.521,681.132 413,700.5C 398.773,715.396 383.939,729.563 368.5,743C 346.887,756.873 323.22,765.206 297.5,768C 283.049,769.842 268.716,771.342 254.5,772.5C 169.5,772.5 84.5,772.5 -0.5,772.5C -0.5,573.5 -0.5,374.5 -0.5,175.5 Z"/></g>
<g><path style="opacity:0.969" fill="#ad4984" d="M 1025.5,273.5 C 1025.5,404.833 1025.5,536.167 1025.5,667.5C 1023.74,668.461 1021.74,668.795 1019.5,668.5C 1020.13,536.834 1020.47,405.168 1020.5,273.5C 1022.17,273.5 1023.83,273.5 1025.5,273.5 Z"/></g>
<g><path style="opacity:1" fill="#773e84" d="M 973.5,171.5 C 990.833,171.5 1008.17,171.5 1025.5,171.5C 1008.67,172.497 991.675,172.83 974.5,172.5C 974.5,371.5 974.5,570.5 974.5,769.5C 974.167,769.5 973.833,769.5 973.5,769.5C 973.5,570.167 973.5,370.833 973.5,171.5 Z"/></g>
</svg>
